<?xml version="1.0" encoding="utf-8"?>
<!-- Generator: Adobe Illustrator 27.2.0, SVG Export Plug-In . SVG Version: 6.00 Build 0)  -->
<svg version="1.1" id="Layer_1" xmlns="http://www.w3.org/2000/svg" xmlns:xlink="http://www.w3.org/1999/xlink" x="0px" y="0px"
	 viewBox="0 0 100 100" style="enable-background:new 0 0 100 100;" xml:space="preserve">
<style type="text/css">
	.st0{fill:#FFFFFF;}
</style>
<g>
	<g>
		<path class="st0" d="M11,19.8c1.1-1.4,2.9-1.6,4.2-0.6c0.7,0.5,1.1,1.2,1.2,1.9c0.1,0.7-0.1,1.5-0.6,2.3l-1.3,1.7l2.7,1.9l-1,1.4
			L8.6,23L11,19.8z M14.5,22.8c0.6-0.7,0.4-1.5-0.3-2s-1.5-0.5-2,0.3L11,22.6l2.5,1.8L14.5,22.8z"/>
		<path class="st0" d="M24.6,19l-4.4-0.9l-0.4,0.4l2.5,2.7l-1.3,1.2l-6.2-7l3-2.7c1.3-1.2,2.9-1.1,4,0.2c1,1.1,1,2.6-0.1,3.8
			l4.6,0.8L24.6,19z M17,15.3l1.7,1.9l1.4-1.2c0.7-0.6,0.8-1.3,0.2-1.9c-0.6-0.7-1.3-0.6-2,0L17,15.3z"/>
		<path class="st0" d="M23.5,8.4l5.1,7.8l-1.4,0.9L22,9.4L23.5,8.4z"/>
		<path class="st0" d="M31.5,4.2l1.7-0.8l0.7,9.9L32.5,14l-7.2-7L27,6.2l5.2,5.3L31.5,4.2z"/>
		<path class="st0" d="M42.7,10.6l-1.1-1.7l-3.5,0.9l-0.2,2l-1.8,0.4l1.2-9.9l1.5-0.4l5.7,8.2L42.7,10.6z M38.2,8.1l2.6-0.6
			l-2.1-3.3L38.2,8.1z"/>
		<path class="st0" d="M49.9,0.6L50,2.1l-2.7,0.2l0.6,7.8l-1.7,0.1l-0.5-7.7L43,2.7l-0.1-1.5L49.9,0.6z"/>
		<path class="st0" d="M58.6,1.4l-0.1,1.5L54,2.4l-0.2,2.3l4,0.4l-0.2,1.5l-4-0.4l-0.2,2.4L57.9,9l-0.2,1.5l-6.2-0.7l1-9.2L58.6,1.4
			z"/>
		<path class="st0" d="M62.2,11.5l0.7-1.6c0.5,0.7,1.2,1.3,2.1,1.6c0.9,0.4,1.8,0.3,2.1-0.5c0.1-0.3,0.1-0.6,0-0.8
			c0-0.1-0.1-0.3-0.3-0.4c-0.3-0.3-0.4-0.4-0.8-0.8l-0.4-0.4c-0.1-0.1-0.2-0.2-0.4-0.4s-0.3-0.3-0.4-0.5c-0.2-0.2-0.5-0.6-0.5-1
			c0-0.3,0-0.8,0.2-1.3c0.7-1.8,2.7-1.8,4.2-1.2c0.8,0.3,1.4,0.7,1.9,1.3L70,7c-0.5-0.7-1-1.2-1.8-1.4c-0.8-0.3-1.6-0.3-1.9,0.4
			c-0.2,0.3,0,0.7,0.1,0.9c0.1,0.1,0.2,0.2,0.3,0.3c0.3,0.3,0.3,0.3,0.7,0.6c0,0,0,0.1,0.1,0.1c0.2,0.2,0.3,0.3,0.4,0.4
			c0.2,0.2,0.6,0.6,0.8,0.8s0.4,0.7,0.4,1c0,0.3,0,0.8-0.2,1.3c-0.8,2-2.9,1.9-4.5,1.3C63.5,12.5,62.8,12,62.2,11.5z"/>
		<path class="st0" d="M73.6,17.6l0.5-1.9l-3.1-1.9L69.5,15l-1.5-1l8-5.9l1.3,0.8l-2,9.8L73.6,17.6z M72.3,12.7l2.1,1.4l0.9-3.8
			L72.3,12.7z"/>
		<path class="st0" d="M83.2,13.6l-5.3,5.6l3.1,2.9l-1,1.1l-4.3-4.1l6.3-6.8L83.2,13.6z"/>
		<path class="st0" d="M91.6,23.3l-1.2,0.9l-2.7-3.6l-1.8,1.3l2.5,3.3l-1.2,0.9l-2.5-3.3l-1.9,1.4l2.7,3.6l-1.2,0.9l-3.7-5l7.5-5.5
			L91.6,23.3z"/>
		<path class="st0" d="M95.7,31.4l-7.2,2.8l1.5,4l-1.4,0.6l-2.1-5.5l8.7-3.4L95.7,31.4z"/>
		<path class="st0" d="M98.1,39l-9,2.3l-0.4-1.6l9-2.3L98.1,39z"/>
		<path class="st0" d="M99.3,48.1l0.2,1.8l-9.6-2.8l-0.1-1.5l9-4.4L99,43l-6.8,3.1L99.3,48.1z"/>
		<path class="st0" d="M98.6,58.7l-1.5-0.2l0.5-4.5l-2.3-0.2l-0.4,4l-1.5-0.2l0.4-4l-2.4-0.3L91,57.9l-1.5-0.2l0.7-6.2l9.2,1
			L98.6,58.7z"/>
	</g>
	<g>
		<path class="st0" d="M88.4,80.9c-1.1,1.4-2.9,1.5-4.2,0.5c-0.7-0.5-1.1-1.2-1.2-1.9c-0.1-0.8,0.1-1.5,0.7-2.3l1.3-1.7l-2.6-2
			l1.1-1.4l7.4,5.7L88.4,80.9z M85,77.9c-0.6,0.7-0.4,1.5,0.3,2s1.5,0.5,2-0.2l1.2-1.5l-2.4-1.8L85,77.9z"/>
		<path class="st0" d="M74.8,81.4l4.4,1l0.4-0.3l-2.4-2.8l1.3-1.1l6,7.1l-3,2.6c-1.3,1.2-3,1-4-0.2c-1-1.1-1-2.6,0.1-3.8L73.1,83
			L74.8,81.4z M82.4,85.3l-1.7-2l-1.4,1.2c-0.7,0.6-0.8,1.3-0.3,1.9c0.6,0.7,1.3,0.6,2,0L82.4,85.3z"/>
		<path class="st0" d="M75.8,92.1l-5-7.9l1.4-0.9l5,7.9L75.8,92.1z"/>
		<path class="st0" d="M67.6,96.2l-1.7,0.7L65.4,87l1.4-0.6l7.1,7.1l-1.7,0.7L67,88.7L67.6,96.2z"/>
		<path class="st0" d="M56.6,89.5l1.1,1.7l3.5-0.8l0.2-2l1.8-0.4l-1.4,9.8l-1.5,0.5L54.7,90L56.6,89.5z M61,92.1l-2.6,0.6l2,3.3
			L61,92.1z"/>
		<path class="st0" d="M49.2,99.4l-0.1-1.5l2.7-0.1L51.3,90l1.7-0.1l0.4,7.8l2.7-0.1l0.1,1.5L49.2,99.4z"/>
		<path class="st0" d="M40.5,98.5l0.2-1.5l4.5,0.6l0.3-2.3l-4-0.5l0.2-1.5l4,0.5l0.3-2.4l-4.5-0.6l0.2-1.5l6.2,0.8l-1.2,9.2
			L40.5,98.5z"/>
		<path class="st0" d="M37.1,88.3l-0.7,1.6c-0.4-0.7-1.2-1.3-2.1-1.7c-0.9-0.4-1.8-0.3-2.1,0.4c-0.1,0.3-0.1,0.6,0,0.8
			c0,0.1,0.1,0.3,0.3,0.4c0.3,0.3,0.4,0.4,0.8,0.8l0.4,0.4c0.1,0.1,0.2,0.2,0.4,0.4c0.2,0.2,0.3,0.3,0.4,0.5c0.2,0.2,0.4,0.7,0.4,1
			s0,0.8-0.2,1.3c-0.8,1.8-2.8,1.7-4.2,1.1c-0.8-0.3-1.4-0.8-1.9-1.3l0.7-1.5c0.4,0.7,1,1.2,1.8,1.5c0.8,0.3,1.6,0.3,1.9-0.4
			c0.2-0.3,0-0.7-0.1-0.9c-0.1-0.1-0.1-0.2-0.3-0.3c-0.3-0.3-0.3-0.3-0.7-0.6c0,0,0-0.1-0.1-0.1c-0.2-0.2-0.3-0.3-0.4-0.4
			c-0.2-0.2-0.6-0.6-0.8-0.9c-0.2-0.2-0.4-0.7-0.4-1.1c0-0.3,0-0.8,0.2-1.3c0.8-2,2.9-1.9,4.5-1.2C35.8,87.2,36.5,87.7,37.1,88.3z"
			/>
		<path class="st0" d="M25.7,81.9l-0.5,1.9l3,2l1.6-1.2l1.5,1l-8.2,5.7l-1.3-0.8l2.3-9.7L25.7,81.9z M27,86.9l-2.1-1.4l-1,3.8
			L27,86.9z"/>
		<path class="st0" d="M16.1,85.8l5.4-5.5l-3.1-3l1.1-1.1l4.3,4.2l-6.4,6.7L16.1,85.8z"/>
		<path class="st0" d="M7.9,75.9L9.1,75l2.7,3.7l1.8-1.3l-2.4-3.3l1.2-0.9l2.4,3.3l1.9-1.3l-2.7-3.7l1.2-0.9l3.6,5.1L11.4,81
			L7.9,75.9z"/>
		<path class="st0" d="M3.9,67.7l7.3-2.7l-1.4-4l1.4-0.5l2,5.6l-8.7,3.2L3.9,67.7z"/>
		<path class="st0" d="M1.7,60l9.1-2l0.4,1.6l-9.1,2L1.7,60z"/>
		<path class="st0" d="M0.7,51l-0.1-1.8l9.5,2.9l0.1,1.5l-9,4.2l-0.1-1.8l6.8-3L0.7,51z"/>
		<path class="st0" d="M1.5,40.4L3,40.6l-0.6,4.5l2.3,0.3l0.5-4l1.5,0.2l-0.5,4l2.4,0.3l0.6-4.5l1.5,0.2l-0.8,6.2l-9.2-1.2L1.5,40.4
			z"/>
	</g>
	<g>
		<path class="st0" d="M10.1,35.8c-0.1-0.3-0.1-0.6,0.1-1c0.2-0.3,0.4-0.5,0.7-0.6c0.3-0.1,0.6-0.1,1,0.1c0.3,0.2,0.6,0.4,0.7,0.7
			c0.1,0.3,0.1,0.6,0,1c-0.2,0.3-0.4,0.6-0.7,0.7c-0.3,0.1-0.6,0.1-1-0.1C10.5,36.4,10.2,36.1,10.1,35.8z"/>
	</g>
	<g>
		<path class="st0" d="M86.9,66.5c-0.1-0.3-0.1-0.6,0.1-1c0.2-0.3,0.4-0.5,0.7-0.6c0.3-0.1,0.6-0.1,1,0.1c0.3,0.2,0.6,0.4,0.7,0.7
			c0.1,0.3,0.1,0.6,0,1c-0.2,0.3-0.4,0.6-0.7,0.7c-0.3,0.1-0.6,0.1-1-0.1C87.3,67.1,87,66.8,86.9,66.5z"/>
	</g>
</g>
</svg>
